<svg xmlns="http://www.w3.org/2000/svg" width="320" height="320" viewBox="0 0 320 320">
  <defs>
    <linearGradient id="peelMain" x1="0" y1="0" x2="1" y2="1">
      <stop offset="0" stop-color="#ffe27a"/>
      <stop offset="0.5" stop-color="#f2c84b"/>
      <stop offset="1" stop-color="#b88b12"/>
    </linearGradient>
    <linearGradient id="peelDark" x1="0" y1="0" x2="0" y2="1">
      <stop offset="0" stop-color="#caa030"/>
      <stop offset="1" stop-color="#7c5a0c"/>
    </linearGradient>
  </defs>
  <path d="M160 56c-14 34-26 74-26 108 0 38 20 64 26 72 6-8 26-34 26-72 0-34-12-74-26-108" fill="url(#peelMain)"/>
  <path d="M162 68c-28 8-70 46-88 90-14 34-6 56 12 72 20 18 52 24 96 22" fill="none" stroke="url(#peelMain)" stroke-width="16" stroke-linecap="round"/>
  <path d="M158 68c28 8 70 46 88 90 14 34 6 56-12 72-20 18-52 24-96 22" fill="none" stroke="url(#peelMain)" stroke-width="16" stroke-linecap="round"/>
  <path d="M118 140c18 8 36 10 42 6" stroke="url(#peelDark)" stroke-width="10" stroke-linecap="round"/>
  <path d="M196 140c-18 8-36 10-42 6" stroke="url(#peelDark)" stroke-width="10" stroke-linecap="round"/>
  <circle cx="160" cy="54" r="10" fill="#6e4f08"/>
  <circle cx="160" cy="54" r="5" fill="#3b2a05"/>
</svg>
