<svg xmlns="http://www.w3.org/2000/svg" width="256" height="256" viewBox="0 0 256 256">
  <defs>
    <linearGradient id="bag" x1="0" x2="0" y1="0" y2="1">
      <stop offset="0" stop-color="#2b2b2b"/>
      <stop offset="1" stop-color="#0f0f0f"/>
    </linearGradient>
    <linearGradient id="shine" x1="0" x2="1" y1="0" y2="1">
      <stop offset="0" stop-color="#ffffff" stop-opacity="0.15"/>
      <stop offset="1" stop-color="#ffffff" stop-opacity="0"/>
    </linearGradient>
  </defs>
  <path d="M116 28c6 8 12 12 12 18 0-6 6-10 12-18" fill="none" stroke="#3a3a3a" stroke-width="6" stroke-linecap="round"/>
  <path d="M86 62c12-18 72-18 84 0 8 12 14 28 10 44l-8 34c-3 12 5 24 10 36 8 20 6 34-6 44-14 12-78 12-92 0-12-10-14-24-6-44 6-12 14-24 10-36l-8-34c-4-16 2-32 6-44z" fill="url(#bag)"/>
  <path d="M104 96c28-8 50 6 60 24" fill="none" stroke="url(#shine)" stroke-width="10" stroke-linecap="round"/>
  <path d="M98 70c16-10 44-10 60 0" fill="none" stroke="#1a1a1a" stroke-width="8" stroke-linecap="round"/>
</svg>
